<?xml version="1.0" encoding="UTF-8"?><svg xmlns="http://www.w3.org/2000/svg" xmlns:xlink="http://www.w3.org/1999/xlink" contentScriptType="text/ecmascript" width="1050" zoomAndPan="magnify" contentStyleType="text/css" viewBox="0 0 1050 802.499976" height="802.499976" preserveAspectRatio="xMidYMid meet" version="1.0"><defs><clipPath id="clip-0"><path d="M 395 643 L 619 643 L 619 674.859375 L 395 674.859375 Z M 395 643 " clip-rule="nonzero"/></clipPath><clipPath id="clip-1"><path d="M 298 276 L 453.152344 276 L 453.152344 344.511719 L 298 344.511719 Z M 298 276 " clip-rule="nonzero"/></clipPath><clipPath id="clip-2"><path d="M 298 307 L 453.152344 307 L 453.152344 344.511719 L 298 344.511719 Z M 298 307 " clip-rule="nonzero"/></clipPath><clipPath id="clip-3"><path d="M 338 195.355469 L 412 195.355469 L 412 262 L 338 262 Z M 338 195.355469 " clip-rule="nonzero"/></clipPath><clipPath id="clip-4"><path d="M 304.613281 454 L 446.277344 454 L 446.277344 517.078125 L 304.613281 517.078125 Z M 304.613281 454 " clip-rule="nonzero"/></clipPath><clipPath id="clip-5"><path d="M 332 483 L 423 483 L 423 517.078125 L 332 517.078125 Z M 332 483 " clip-rule="nonzero"/></clipPath><clipPath id="clip-6"><path d="M 342 370 L 423 370 L 423 517.078125 L 342 517.078125 Z M 342 370 " clip-rule="nonzero"/></clipPath><clipPath id="clip-7"><path d="M 582 417 L 692 417 L 692 470.140625 L 582 470.140625 Z M 582 417 " clip-rule="nonzero"/></clipPath><clipPath id="clip-8"><path d="M 680 420 L 710 420 L 710 470.140625 L 680 470.140625 Z M 680 420 " clip-rule="nonzero"/></clipPath><clipPath id="clip-9"><path d="M 564 420 L 594 420 L 594 470.140625 L 564 470.140625 Z M 564 420 " clip-rule="nonzero"/></clipPath><clipPath id="clip-10"><path d="M 618 415 L 656 415 L 656 470.140625 L 618 470.140625 Z M 618 415 " clip-rule="nonzero"/></clipPath></defs><path fill="rgb(81.959534%, 93.728638%, 95.689392%)" d="M 639.277344 686.773438 C 553.058594 652.164062 358.40625 731.175781 261.734375 750.769531 C 155.261719 772.316406 52.058594 693.957031 47.484375 552.902344 C 39.648438 334.140625 185.960938 394.871094 266.304688 270.796875 C 297.660156 222.476562 274.144531 154.5625 302.882812 113.421875 C 345.996094 50.730469 427.644531 40.28125 479.898438 37.015625 C 594.207031 29.835938 695.453125 95.136719 805.191406 110.15625 C 934.523438 127.132812 997.882812 151.296875 1002.453125 348.507812 C 1010.292969 752.726562 807.148438 753.378906 639.277344 686.773438 Z M 639.277344 686.773438 " fill-opacity="1" fill-rule="nonzero"/><g clip-path="url(#clip-0)"><path fill="rgb(21.179199%, 40.779114%, 42.749023%)" d="M 615.734375 671.960938 C 611.644531 674.910156 405.816406 674.683594 399.460938 671.960938 C 393.109375 669.242188 394.476562 648.539062 399.460938 645.59375 C 404.453125 642.648438 609.761719 642.171875 614.753906 644.667969 C 619.738281 647.160156 619.8125 669.011719 615.734375 671.960938 Z M 615.734375 671.960938 " fill-opacity="1" fill-rule="nonzero"/></g><path fill="rgb(28.62854%, 47.839355%, 50.979614%)" d="M 615.222656 645.59375 C 611.132812 648.542969 405.304688 648.316406 398.949219 645.59375 C 392.605469 642.875 440.53125 599.980469 445.519531 597.035156 C 450.507812 594.085938 563.140625 594.539062 568.128906 597.035156 C 573.117188 599.523438 619.300781 642.648438 615.222656 645.59375 Z M 615.222656 645.59375 " fill-opacity="1" fill-rule="nonzero"/><path fill="rgb(28.62854%, 47.839355%, 50.979614%)" d="M 475.058594 551.726562 L 538.789062 551.726562 L 538.789062 616.542969 L 475.058594 616.542969 Z M 475.058594 551.726562 " fill-opacity="1" fill-rule="nonzero"/><path fill="rgb(21.179199%, 40.779114%, 42.749023%)" d="M 791.683594 556.375 C 781.214844 571.492188 240.644531 570.324219 224.363281 556.375 C 208.085938 542.425781 211.578125 169.214844 224.363281 154.109375 C 237.144531 139 778.902344 141.3125 791.683594 154.109375 C 804.472656 166.902344 802.148438 541.261719 791.683594 556.375 Z M 791.683594 556.375 " fill-opacity="1" fill-rule="nonzero"/><path fill="rgb(100%, 100%, 100%)" d="M 772.363281 530.800781 C 760.402344 545.917969 255.925781 542.421875 241.574219 530.800781 C 227.234375 519.175781 232.015625 194.796875 241.574219 179.6875 C 251.136719 164.578125 760.410156 169.222656 772.363281 179.6875 C 784.308594 190.152344 784.324219 515.683594 772.363281 530.800781 Z M 772.363281 530.800781 " fill-opacity="1" fill-rule="nonzero"/><path fill="rgb(100%, 100%, 100%)" d="M 255.53125 517.71875 C 242.371094 507.058594 245.304688 233.296875 253.261719 176.394531 C 246.457031 177.367188 242.359375 178.460938 241.578125 179.6875 C 232.019531 194.796875 227.238281 519.175781 241.578125 530.796875 C 255.925781 542.421875 760.402344 545.914062 772.363281 530.796875 C 773.355469 529.542969 774.273438 526.097656 775.101562 520.902344 C 699.058594 532.246094 268.769531 528.445312 255.53125 517.71875 Z M 255.53125 517.71875 " fill-opacity="1" fill-rule="nonzero"/><path fill="rgb(100%, 58.428955%, 14.509583%)" d="M 468.417969 352.914062 L 282.414062 352.914062 C 267.371094 352.914062 255.117188 340.636719 255.117188 325.574219 L 255.117188 214.613281 C 255.117188 199.546875 267.371094 187.273438 282.414062 187.273438 L 468.417969 187.273438 C 483.460938 187.273438 495.714844 199.546875 495.714844 214.613281 L 495.714844 325.574219 C 495.714844 340.636719 483.460938 352.914062 468.417969 352.914062 Z M 468.417969 352.914062 " fill-opacity="1" fill-rule="nonzero"/><path fill="rgb(92.939758%, 23.139954%, 26.269531%)" d="M 729.921875 525.304688 L 543.917969 525.304688 C 528.878906 525.304688 516.621094 513.042969 516.621094 497.996094 L 516.621094 214.582031 C 516.621094 199.535156 528.878906 187.273438 543.917969 187.273438 L 729.921875 187.273438 C 744.964844 187.273438 757.222656 199.535156 757.222656 214.582031 L 757.222656 497.996094 C 757.222656 513.042969 744.964844 525.304688 729.921875 525.304688 Z M 729.921875 525.304688 " fill-opacity="1" fill-rule="nonzero"/><path fill="rgb(0%, 48.629761%, 99.21875%)" d="M 468.417969 525.484375 L 282.414062 525.484375 C 267.371094 525.484375 255.117188 513.207031 255.117188 498.140625 L 255.117188 387.183594 C 255.117188 372.117188 267.371094 359.839844 282.414062 359.839844 L 468.417969 359.839844 C 483.460938 359.839844 495.714844 372.117188 495.714844 387.183594 L 495.714844 498.140625 C 495.714844 513.207031 483.460938 525.484375 468.417969 525.484375 Z M 468.417969 525.484375 " fill-opacity="1" fill-rule="nonzero"/><path fill="rgb(98.429871%, 79.60968%, 59.609985%)" d="M 341.210938 244.132812 C 340.191406 243.023438 338.625 242.492188 337.75 244.019531 C 336.484375 246.207031 336.617188 249.144531 336.800781 251.574219 C 336.949219 253.53125 337.195312 255.5 337.707031 257.402344 C 338.148438 259.050781 338.757812 261.320312 340.230469 262.34375 C 340.566406 262.574219 341.027344 262.808594 341.449219 262.894531 C 341.683594 262.945312 343.089844 262.96875 342.613281 262.359375 " fill-opacity="1" fill-rule="nonzero"/><path fill="rgb(98.429871%, 79.60968%, 59.609985%)" d="M 409.824219 244.132812 C 410.84375 243.023438 412.40625 242.492188 413.285156 244.019531 C 414.550781 246.207031 414.417969 249.144531 414.234375 251.574219 C 414.085938 253.53125 413.839844 255.5 413.328125 257.402344 C 412.886719 259.050781 412.277344 261.320312 410.804688 262.34375 C 410.46875 262.574219 410.007812 262.808594 409.585938 262.894531 C 409.351562 262.945312 407.945312 262.96875 408.421875 262.359375 " fill-opacity="1" fill-rule="nonzero"/><g clip-path="url(#clip-1)"><path fill="rgb(98.429871%, 79.60968%, 59.609985%)" d="M 452.230469 344.457031 C 452.53125 344.113281 452.84375 343.777344 453.140625 343.433594 C 448.527344 331.664062 438.722656 322.269531 426.074219 318.40625 L 405.785156 310.933594 C 397.625 308.273438 397.195312 303.1875 397.195312 294.632812 L 397.195312 276.453125 L 353.949219 276.453125 L 353.949219 294.640625 C 353.949219 303.1875 354.320312 307.683594 346.179688 310.351562 L 325.117188 318.421875 C 312.460938 322.273438 302.648438 331.664062 298.019531 343.4375 C 298.316406 343.785156 298.625 344.117188 298.925781 344.457031 Z M 452.230469 344.457031 " fill-opacity="1" fill-rule="nonzero"/></g><g clip-path="url(#clip-2)"><path fill="rgb(18.03894%, 19.999695%, 20.388794%)" d="M 452.230469 344.457031 C 452.53125 344.113281 452.84375 343.777344 453.140625 343.433594 C 448.527344 331.664062 438.722656 322.269531 426.074219 318.40625 L 405.785156 310.933594 C 404.007812 310.351562 402.605469 309.648438 401.492188 308.828125 C 401.140625 309.039062 400.722656 309.339844 400.257812 309.714844 C 385.824219 321.238281 365.097656 320.339844 351.601562 307.738281 C 351.515625 307.660156 351.433594 307.582031 351.347656 307.503906 C 350.203125 308.648438 348.554688 309.582031 346.179688 310.367188 L 325.117188 318.441406 C 312.460938 322.292969 302.648438 331.679688 298.019531 343.457031 C 298.316406 343.800781 298.625 344.136719 298.925781 344.476562 L 452.230469 344.476562 Z M 452.230469 344.457031 " fill-opacity="1" fill-rule="nonzero"/></g><path fill="rgb(98.429871%, 79.60968%, 59.609985%)" d="M 410.003906 240.429688 C 409.914062 216.066406 394.761719 203.113281 375.433594 203.113281 C 375.421875 203.113281 375.445312 203.113281 375.433594 203.113281 C 375.421875 203.113281 373.972656 201.515625 373.960938 201.515625 C 354.636719 201.515625 341.292969 216.066406 341.210938 240.429688 C 341.167969 251.53125 341.550781 258.847656 342.683594 266.910156 C 346.207031 291.964844 369.324219 298.992188 375.570312 298.992188 C 383.214844 298.992188 405.007812 291.964844 408.527344 266.910156 C 409.664062 258.847656 410.046875 251.535156 410.003906 240.429688 Z M 410.003906 240.429688 " fill-opacity="1" fill-rule="nonzero"/><g clip-path="url(#clip-3)"><path fill="rgb(51.759338%, 25.878906%, 17.248535%)" d="M 344.375 248.089844 C 345.574219 240.902344 347.804688 233.890625 349.785156 226.835938 C 351.242188 221.652344 353.890625 215.441406 359.28125 215.097656 C 364.960938 214.734375 369.042969 221.472656 374.734375 221.585938 C 378.488281 221.65625 381.5625 218.839844 384.558594 216.585938 C 387.554688 214.328125 391.738281 212.476562 394.898438 214.496094 C 397.328125 216.042969 397.574219 218.5 398.324219 220.9375 C 399.46875 224.628906 400.972656 228.234375 402.417969 231.847656 C 405.480469 239.503906 408.570312 247.296875 409.28125 255.507812 C 411.609375 245.429688 411.90625 234.890625 410.160156 224.699219 C 407.800781 210.964844 400.042969 201.539062 386.089844 198.460938 C 379.9375 197.105469 373.601562 196.550781 367.4375 195.34375 C 368.972656 197.160156 369.222656 199.605469 369.664062 201.867188 C 366.851562 202.363281 363.660156 201.195312 360.683594 201.375 C 356.988281 201.601562 353.34375 202.683594 350.15625 204.570312 C 344.804688 207.738281 340.824219 213.125 339.371094 219.167969 C 338.625 222.265625 338.53125 225.472656 338.574219 228.65625 C 338.6875 237.230469 340.929688 245.171875 341.417969 253.578125 C 341.503906 255.007812 341.417969 256.214844 341.269531 257.578125 C 341.144531 258.679688 341.324219 260.109375 341.675781 261.144531 C 341.253906 259.890625 343.933594 250.871094 344.3125 248.523438 C 344.324219 248.382812 344.347656 248.238281 344.375 248.089844 Z M 344.375 248.089844 " fill-opacity="1" fill-rule="nonzero"/></g><path fill="rgb(55.688477%, 29.019165%, 19.999695%)" d="M 389.988281 267.5625 C 386.042969 265.933594 383.28125 262.808594 379.621094 260.765625 C 375.390625 258.402344 371.261719 260.167969 367.496094 262.539062 C 363.679688 264.945312 359.863281 267.414062 355.167969 267.433594 C 350.714844 267.445312 346.535156 265.507812 343.3125 262.53125 C 342.773438 262.039062 342.273438 261.507812 341.777344 260.972656 C 341.980469 263.164062 342.230469 265.320312 342.546875 267.527344 C 346.066406 292.585938 369.1875 299.609375 375.433594 299.609375 C 383.078125 299.609375 404.871094 292.585938 408.390625 267.527344 C 408.535156 266.515625 409.753906 260.652344 409.871094 259.652344 C 404.691406 264.109375 396.695312 270.332031 389.988281 267.5625 Z M 380.105469 281.214844 C 380.105469 281.214844 379.394531 279.625 378.511719 279.625 L 373.703125 279.625 C 372.824219 279.625 372.109375 280.332031 372.109375 281.214844 L 371.4375 284.761719 C 371.4375 285.769531 370.464844 286.476562 369.496094 286.1875 C 366.160156 285.167969 362.65625 283.136719 359.144531 279.625 C 359.144531 279.625 364.460938 275.761719 369.191406 272.839844 C 373.25 270.324219 378.375 270.488281 382.445312 272.980469 C 384.886719 274.476562 387.59375 276.453125 392.179688 279.625 C 392.179688 279.625 387.851562 284.023438 381.382812 286.042969 C 380.421875 286.347656 380.105469 282.226562 380.105469 281.214844 Z M 380.105469 281.214844 " fill-opacity="1" fill-rule="nonzero"/><path fill="rgb(8.239746%, 21.569824%, 28.62854%)" d="M 415.398438 435.453125 C 415.574219 433.128906 415.636719 430.800781 415.585938 428.476562 C 415.273438 414.476562 411 400.738281 403.972656 388.671875 C 401.101562 383.746094 397.265625 376.4375 392.269531 373.417969 C 390.539062 372.371094 374.71875 369.808594 374.71875 370.308594 C 374.71875 384.054688 374.71875 397.808594 374.71875 411.554688 C 374.71875 432.460938 369.300781 451.773438 368.753906 472.722656 C 368.617188 478.0625 369.089844 484.242188 373.414062 487.390625 C 378.894531 491.382812 386.648438 487.828125 391.816406 483.441406 C 405.765625 471.597656 414.03125 453.742188 415.398438 435.453125 Z M 415.398438 435.453125 " fill-opacity="1" fill-rule="nonzero"/><path fill="rgb(8.239746%, 21.569824%, 28.62854%)" d="M 331.996094 435.210938 C 326.394531 403.140625 337.363281 369.738281 376.132812 370.304688 C 375.105469 386.101562 381.207031 399.21875 382.765625 414.488281 C 385.332031 439.671875 381 467.140625 379.921875 492.421875 C 370.867188 493.558594 362.21875 488.28125 355.511719 482.097656 C 343.703125 471.203125 335.179688 453.421875 331.996094 435.210938 Z M 331.996094 435.210938 " fill-opacity="1" fill-rule="nonzero"/><g clip-path="url(#clip-4)"><path fill="rgb(93.328857%, 75.689697%, 56.858826%)" d="M 444.902344 517.0625 C 445.359375 516.613281 445.824219 516.167969 446.269531 515.707031 C 442.625 503.800781 433.285156 494.144531 420.917969 490.359375 L 397.203125 482.632812 C 392.824219 481.210938 389.863281 477.136719 389.863281 472.535156 L 389.863281 454.347656 L 361.132812 454.347656 L 361.132812 472.753906 C 361.132812 477.390625 358.128906 481.488281 353.707031 482.882812 L 329.945312 490.375 C 317.644531 494.121094 308.324219 503.691406 304.625 515.5 C 305.140625 516.03125 305.667969 516.539062 306.1875 517.050781 L 444.902344 517.050781 Z M 444.902344 517.0625 " fill-opacity="1" fill-rule="nonzero"/></g><g clip-path="url(#clip-5)"><path fill="rgb(100%, 100%, 100%)" d="M 333.175781 517.0625 L 418.453125 517.0625 C 417.824219 508.164062 419.191406 499.164062 422.804688 491.003906 C 422.183594 490.777344 421.558594 490.554688 420.917969 490.363281 L 400.292969 483.648438 C 394.945312 489.320312 387.972656 493.128906 379.789062 494.007812 C 370.832031 494.964844 357.078125 492.195312 352.765625 483.1875 L 332.011719 489.730469 C 335.621094 498.230469 335.410156 508.011719 333.175781 517.0625 Z M 333.175781 517.0625 " fill-opacity="1" fill-rule="nonzero"/></g><path fill="rgb(98.429871%, 79.60968%, 59.609985%)" d="M 406.488281 413.628906 C 406.40625 391.640625 392.9375 375.847656 375.527344 375.847656 C 375.515625 375.847656 375.503906 375.847656 375.492188 375.847656 C 375.480469 375.847656 375.46875 375.847656 375.457031 375.847656 C 358.042969 375.847656 344.574219 391.640625 344.492188 413.628906 C 344.460938 423.652344 344.730469 426.148438 345.75 433.429688 C 348.925781 456.046875 369.828125 466.488281 375.449219 466.488281 C 382.34375 466.488281 401.878906 456.046875 405.050781 433.429688 C 406.085938 426.15625 406.523438 423.652344 406.488281 413.628906 Z M 406.488281 413.628906 " fill-opacity="1" fill-rule="nonzero"/><path fill="rgb(98.429871%, 79.60968%, 59.609985%)" d="M 344.5 416.972656 C 343.582031 415.976562 342.175781 415.492188 341.378906 416.871094 C 340.238281 418.847656 340.359375 421.496094 340.519531 423.6875 C 340.652344 425.457031 340.878906 427.234375 341.339844 428.949219 C 341.738281 430.4375 342.289062 432.484375 343.613281 433.410156 C 343.917969 433.625 344.328125 433.832031 344.707031 433.914062 C 344.921875 433.960938 346.183594 433.976562 345.757812 433.429688 " fill-opacity="1" fill-rule="nonzero"/><path fill="rgb(98.429871%, 79.60968%, 59.609985%)" d="M 406.328125 416.972656 C 407.242188 415.976562 408.652344 415.492188 409.449219 416.871094 C 410.589844 418.847656 410.46875 421.496094 410.308594 423.6875 C 410.175781 425.457031 409.949219 427.234375 409.488281 428.949219 C 409.089844 430.4375 408.535156 432.484375 407.214844 433.410156 C 406.910156 433.625 406.5 433.832031 406.121094 433.914062 C 405.90625 433.960938 404.644531 433.976562 405.070312 433.429688 " fill-opacity="1" fill-rule="nonzero"/><g clip-path="url(#clip-6)"><path fill="rgb(3.529358%, 15.689087%, 21.958923%)" d="M 379.625 423.1875 C 385.324219 424.898438 390.636719 427.867188 395.085938 431.820312 C 394.527344 431.320312 395 420.4375 394.628906 418.703125 C 395.914062 420.320312 396.917969 422.199219 397.703125 424.21875 C 399.675781 429.320312 400.242188 435.332031 400.355469 440.398438 C 400.605469 450.960938 398.726562 461.566406 394.871094 471.40625 C 393.34375 475.316406 391.496094 479.117188 390.492188 483.1875 C 387.113281 496.871094 394.292969 509.382812 405.128906 517.054688 L 417.464844 517.054688 C 414.847656 512.179688 412.949219 506.910156 412.140625 501.453125 C 410.855469 492.789062 408.652344 486.613281 412.566406 477.949219 C 415.105469 472.335938 418.648438 467.160156 420.457031 461.273438 C 421.894531 456.605469 422.1875 451.671875 422.472656 446.789062 C 423.492188 429.058594 420.285156 406.824219 410.410156 391.550781 C 402.59375 379.457031 397.472656 372.015625 380.324219 370.238281 C 358.660156 368 346.367188 382.5625 343.195312 395.492188 C 341.742188 401.40625 343.496094 408.003906 347.691406 412.417969 C 355.539062 420.707031 368.691406 419.894531 379.625 423.1875 Z M 379.625 423.1875 " fill-opacity="1" fill-rule="nonzero"/></g><path fill="rgb(13.729858%, 12.159729%, 12.548828%)" d="M 697.089844 400.609375 C 659.6875 411.199219 696.523438 342.15625 695.988281 309.800781 C 695.464844 278.054688 676.613281 257.136719 637.65625 256.355469 L 637.65625 256.351562 L 637.613281 256.355469 L 637.574219 256.351562 L 637.574219 256.355469 C 598.617188 257.136719 579.765625 278.054688 579.238281 309.800781 C 578.707031 342.15625 615.539062 411.199219 578.136719 400.609375 C 570.515625 427.066406 604.160156 430.417969 637.613281 427.691406 C 671.066406 430.417969 704.714844 427.066406 697.089844 400.609375 " fill-opacity="1" fill-rule="nonzero"/><g clip-path="url(#clip-7)"><path fill="rgb(57.249451%, 83.139038%, 93.328857%)" d="M 666.28125 417.515625 L 607.792969 417.515625 C 590.898438 417.515625 582.082031 428.683594 582.082031 442.457031 L 583.25 470.121094 L 690.824219 470.121094 L 691.996094 442.457031 C 691.996094 428.683594 683.175781 417.515625 666.28125 417.515625 " fill-opacity="1" fill-rule="nonzero"/></g><g clip-path="url(#clip-8)"><path fill="rgb(57.249451%, 83.139038%, 93.328857%)" d="M 684.675781 470.121094 L 709.894531 470.121094 C 709.847656 469.738281 697.058594 428.785156 697.058594 428.785156 C 695.765625 423.429688 686.355469 420.023438 680.371094 421.171875 L 684.675781 470.121094 " fill-opacity="1" fill-rule="nonzero"/></g><g clip-path="url(#clip-9)"><path fill="rgb(57.249451%, 83.139038%, 93.328857%)" d="M 589.398438 470.121094 L 564.179688 470.121094 C 564.226562 469.738281 577.019531 428.785156 577.019531 428.785156 C 578.304688 423.429688 587.71875 420.023438 593.699219 421.171875 L 589.398438 470.121094 " fill-opacity="1" fill-rule="nonzero"/></g><path fill="rgb(97.648621%, 69.018555%, 42.349243%)" d="M 654.941406 417.515625 L 637.035156 431.71875 L 619.128906 417.515625 L 619.128906 390.359375 L 654.941406 390.359375 L 654.941406 417.515625 " fill-opacity="1" fill-rule="nonzero"/><path fill="rgb(93.328857%, 65.879822%, 40.388489%)" d="M 619.597656 415.117188 L 619.128906 414.675781 L 619.128906 394.230469 C 620.082031 394.832031 621.054688 395.382812 622.039062 395.890625 C 626.699219 399.085938 631.753906 400.609375 637.039062 400.609375 C 642.320312 400.609375 647.371094 399.085938 652.03125 395.890625 C 653.015625 395.390625 653.988281 394.835938 654.941406 394.238281 L 654.941406 398.394531 C 654.246094 398.699219 653.558594 399.003906 652.863281 399.3125 C 647.488281 401.6875 642.003906 403.816406 636.585938 406.105469 C 630.710938 408.585938 624.683594 411.277344 619.597656 415.117188 " fill-opacity="1" fill-rule="nonzero"/><g clip-path="url(#clip-10)"><path fill="rgb(57.249451%, 83.139038%, 93.328857%)" d="M 654.835938 470.121094 L 619.238281 470.121094 L 618.277344 417.921875 L 619.707031 416.066406 L 637.035156 431.71875 L 654.238281 415.660156 L 655.679688 417.515625 L 654.835938 470.121094 " fill-opacity="1" fill-rule="nonzero"/></g><path fill="rgb(13.729858%, 12.159729%, 12.548828%)" d="M 609.421875 417.515625 L 608.550781 417.515625 L 609.347656 417.410156 C 609.371094 417.445312 609.394531 417.480469 609.421875 417.515625 " fill-opacity="1" fill-rule="nonzero"/><path fill="rgb(52.549744%, 76.078796%, 85.099792%)" d="M 618.527344 431.601562 C 613.71875 424.992188 608.550781 417.515625 608.550781 417.515625 L 609.421875 417.515625 C 610.613281 419.199219 614.644531 424.867188 618.5 430.058594 L 618.527344 431.601562 " fill-opacity="1" fill-rule="nonzero"/><path fill="rgb(52.549744%, 76.078796%, 85.099792%)" d="M 626.515625 441.519531 C 625.910156 441.519531 622.332031 436.832031 618.527344 431.601562 L 618.5 430.058594 C 622.273438 435.148438 625.886719 439.785156 626.507812 439.785156 C 626.550781 439.785156 626.574219 439.765625 626.589844 439.734375 C 627.289062 438.152344 636.527344 432.050781 637.015625 431.730469 C 637.015625 431.730469 637.019531 431.730469 637.019531 431.730469 C 636.558594 432.117188 627.289062 439.882812 626.589844 441.46875 C 626.574219 441.5 626.550781 441.519531 626.515625 441.519531 " fill-opacity="1" fill-rule="nonzero"/><path fill="rgb(100%, 100%, 100%)" d="M 637.035156 431.71875 C 637.035156 431.71875 627.308594 438.109375 626.589844 439.734375 C 626.015625 441.039062 609.066406 417.019531 609.066406 417.019531 L 619.101562 414.644531 L 637.035156 431.71875 " fill-opacity="1" fill-rule="nonzero"/><path fill="rgb(13.729858%, 12.159729%, 12.548828%)" d="M 665.488281 417.515625 L 655.679688 417.515625 L 654.941406 416.5625 L 654.941406 415.78125 L 665.488281 417.515625 " fill-opacity="1" fill-rule="nonzero"/><path fill="rgb(52.549744%, 76.078796%, 85.099792%)" d="M 655.453125 431.675781 L 655.679688 417.515625 L 665.488281 417.515625 C 665.488281 417.515625 660.277344 425.050781 655.453125 431.675781 " fill-opacity="1" fill-rule="nonzero"/><path fill="rgb(89.408875%, 62.748718%, 38.42926%)" d="M 637.035156 431.71875 L 637.019531 431.699219 L 654.203125 415.660156 L 654.234375 415.664062 L 637.035156 431.71875 M 654.941406 416.5625 L 654.242188 415.664062 L 654.941406 415.78125 L 654.941406 416.5625 " fill-opacity="1" fill-rule="nonzero"/><path fill="rgb(52.549744%, 76.078796%, 85.099792%)" d="M 647.519531 441.519531 C 647.480469 441.519531 647.457031 441.5 647.441406 441.46875 C 646.746094 439.882812 637.480469 432.117188 637.019531 431.730469 C 637.03125 431.71875 637.035156 431.71875 637.035156 431.71875 L 654.234375 415.664062 L 654.242188 415.664062 L 654.941406 416.5625 L 655.679688 417.515625 L 655.453125 431.675781 C 651.667969 436.878906 648.121094 441.519531 647.519531 441.519531 " fill-opacity="1" fill-rule="nonzero"/><path fill="rgb(48.239136%, 69.40918%, 78.42865%)" d="M 637.019531 431.730469 C 637.019531 431.730469 637.015625 431.730469 637.015625 431.730469 C 637.03125 431.71875 637.035156 431.71875 637.035156 431.71875 C 637.035156 431.71875 637.03125 431.71875 637.019531 431.730469 " fill-opacity="1" fill-rule="nonzero"/><path fill="rgb(91.369629%, 91.369629%, 91.369629%)" d="M 637.015625 431.730469 C 637.007812 431.71875 637 431.71875 637 431.71875 L 637.019531 431.699219 L 637.035156 431.71875 C 637.035156 431.71875 637.03125 431.71875 637.015625 431.730469 " fill-opacity="1" fill-rule="nonzero"/><path fill="rgb(100%, 100%, 100%)" d="M 637 431.71875 C 637 431.71875 646.726562 438.109375 647.441406 439.734375 C 648.019531 441.039062 664.964844 417.019531 664.964844 417.019531 L 654.808594 414.238281 L 637 431.71875 " fill-opacity="1" fill-rule="nonzero"/><path fill="rgb(92.939758%, 59.609985%, 33.329773%)" d="M 637.039062 400.609375 C 631.753906 400.609375 626.699219 399.085938 622.039062 395.890625 C 626.738281 398.296875 631.785156 399.605469 637.039062 399.605469 C 642.285156 399.605469 647.332031 398.296875 652.03125 395.890625 C 647.371094 399.085938 642.320312 400.609375 637.039062 400.609375 " fill-opacity="1" fill-rule="nonzero"/><path fill="rgb(97.648621%, 69.018555%, 42.349243%)" d="M 683.070312 331.175781 C 683.070312 368.96875 662.460938 399.605469 637.039062 399.605469 C 611.613281 399.605469 591.003906 368.96875 591.003906 331.175781 C 591.003906 293.382812 611.613281 262.746094 637.039062 262.746094 C 662.460938 262.746094 683.070312 293.382812 683.070312 331.175781 " fill-opacity="1" fill-rule="nonzero"/><path fill="rgb(13.729858%, 12.159729%, 12.548828%)" d="M 614.539062 274.851562 L 615.203125 288.324219 C 616.046875 305.296875 605.269531 319.625 591.128906 320.324219 L 581.171875 320.816406 C 579.148438 280.15625 603.15625 275.410156 614.539062 274.851562 " fill-opacity="1" fill-rule="nonzero"/><path fill="rgb(13.729858%, 12.159729%, 12.548828%)" d="M 581.171875 320.816406 C 581.140625 320.183594 581.113281 319.5625 581.09375 318.945312 L 581.097656 318.945312 C 581.113281 319.5625 581.140625 320.183594 581.171875 320.816406 L 591.128906 320.324219 C 591.28125 320.316406 591.433594 320.308594 591.582031 320.296875 C 591.433594 320.308594 591.28125 320.316406 591.128906 320.324219 L 581.171875 320.816406 " fill-opacity="1" fill-rule="nonzero"/><path fill="rgb(13.729858%, 12.159729%, 12.548828%)" d="M 581.171875 320.816406 C 581.140625 320.183594 581.113281 319.5625 581.097656 318.945312 L 589.421875 318.53125 C 603.566406 317.832031 615.058594 302.964844 614.214844 285.988281 L 614.003906 281.761719 L 614.96875 283.507812 L 615.203125 288.324219 C 615.234375 288.945312 615.25 289.5625 615.253906 290.179688 C 615.253906 306.148438 604.984375 319.351562 591.582031 320.296875 C 591.433594 320.308594 591.28125 320.316406 591.128906 320.324219 L 581.171875 320.816406 " fill-opacity="1" fill-rule="nonzero"/><path fill="rgb(42.349243%, 78.819275%, 77.249146%)" d="M 639.027344 445.613281 C 639.027344 446.742188 638.109375 447.660156 636.976562 447.660156 C 635.847656 447.660156 634.925781 446.742188 634.925781 445.613281 C 634.925781 444.484375 635.847656 443.570312 636.976562 443.570312 C 638.109375 443.570312 639.027344 444.484375 639.027344 445.613281 " fill-opacity="1" fill-rule="nonzero"/><path fill="rgb(42.349243%, 78.819275%, 77.249146%)" d="M 639.027344 454.816406 C 639.027344 455.941406 638.109375 456.855469 636.976562 456.855469 C 635.847656 456.855469 634.925781 455.941406 634.925781 454.816406 C 634.925781 453.683594 635.847656 452.773438 636.976562 452.773438 C 638.109375 452.773438 639.027344 453.683594 639.027344 454.816406 " fill-opacity="1" fill-rule="nonzero"/><path fill="rgb(42.349243%, 78.819275%, 77.249146%)" d="M 639.027344 464.011719 C 639.027344 465.144531 638.109375 466.058594 636.976562 466.058594 C 635.847656 466.058594 634.925781 465.144531 634.925781 464.011719 C 634.925781 462.886719 635.847656 461.96875 636.976562 461.96875 C 638.109375 461.96875 639.027344 462.886719 639.027344 464.011719 " fill-opacity="1" fill-rule="nonzero"/><path fill="rgb(12.939453%, 27.449036%, 28.62854%)" d="M 683.253906 458.769531 L 664.199219 458.769531 L 664.199219 451.515625 L 683.253906 451.515625 L 683.253906 458.769531 " fill-opacity="1" fill-rule="nonzero"/><path fill="rgb(13.729858%, 12.159729%, 12.548828%)" d="M 608.160156 271.171875 L 619.402344 291.542969 C 633.570312 317.195312 662.382812 328.464844 683.757812 316.71875 L 694.371094 310.882812 C 658.226562 242.257812 625.351562 261.722656 608.160156 271.171875 " fill-opacity="1" fill-rule="nonzero"/><path fill="rgb(13.729858%, 12.159729%, 12.548828%)" d="M 608.160156 271.171875 C 608.5 270.984375 608.855469 270.789062 609.214844 270.589844 L 609.214844 270.59375 C 608.855469 270.789062 608.503906 270.984375 608.160156 271.171875 " fill-opacity="1" fill-rule="nonzero"/><path fill="rgb(13.729858%, 12.159729%, 12.548828%)" d="M 665.34375 321.371094 C 647.957031 321.371094 629.765625 310.300781 619.402344 291.542969 L 614.96875 283.507812 L 614.003906 281.761719 L 608.160156 271.171875 C 608.503906 270.984375 608.855469 270.789062 609.214844 270.59375 L 619.941406 290.019531 C 630.304688 308.78125 648.492188 319.847656 665.882812 319.847656 C 672.269531 319.847656 678.550781 318.351562 684.292969 315.195312 L 693.867188 309.933594 C 694.035156 310.25 694.203125 310.5625 694.371094 310.882812 L 683.757812 316.71875 C 678.011719 319.875 671.730469 321.371094 665.34375 321.371094 " fill-opacity="1" fill-rule="nonzero"/><path fill="rgb(69.018555%, 69.799805%, 68.629456%)" d="M 588.410156 330.574219 C 588.410156 330.574219 588.363281 329.867188 588.273438 328.550781 C 588.179688 327.234375 588.089844 325.289062 588.125 322.804688 C 588.160156 320.324219 588.289062 317.304688 588.730469 313.851562 C 589.179688 310.40625 589.875 306.519531 591.097656 302.378906 C 592.308594 298.234375 593.9375 293.792969 596.332031 289.390625 C 597.515625 287.1875 598.859375 284.980469 600.382812 282.808594 C 601.921875 280.652344 603.617188 278.519531 605.5625 276.53125 C 609.402344 272.527344 614.101562 268.957031 619.5 266.441406 C 622.183594 265.167969 625.050781 264.183594 628.003906 263.527344 L 629.113281 263.277344 L 630.234375 263.09375 C 630.984375 262.972656 631.730469 262.835938 632.492188 262.777344 C 633.246094 262.714844 634 262.601562 634.761719 262.578125 L 637.136719 262.503906 L 639.25 262.574219 C 639.941406 262.597656 640.792969 262.707031 641.554688 262.773438 C 642.355469 262.832031 643.089844 262.96875 643.84375 263.09375 L 644.960938 263.277344 L 646.070312 263.527344 C 649.027344 264.179688 651.894531 265.164062 654.578125 266.4375 C 659.980469 268.949219 664.675781 272.523438 668.519531 276.527344 C 670.464844 278.511719 672.160156 280.644531 673.703125 282.800781 C 675.222656 284.972656 676.566406 287.179688 677.75 289.390625 C 680.144531 293.792969 681.78125 298.230469 682.984375 302.375 C 684.207031 306.519531 684.90625 310.402344 685.351562 313.851562 C 685.796875 317.304688 685.921875 320.324219 685.957031 322.804688 C 685.988281 325.285156 685.898438 327.230469 685.808594 328.546875 C 685.714844 329.867188 685.664062 330.574219 685.664062 330.574219 C 685.664062 330.574219 685.589844 329.871094 685.449219 328.554688 C 685.34375 327.246094 685.066406 325.328125 684.722656 322.90625 C 684.351562 320.488281 683.789062 317.570312 683.007812 314.28125 C 682.1875 311.003906 681.082031 307.359375 679.597656 303.515625 C 679.242188 302.550781 678.820312 301.585938 678.394531 300.609375 C 677.984375 299.621094 677.484375 298.652344 677.007812 297.660156 C 676.53125 296.660156 675.984375 295.683594 675.464844 294.671875 C 674.902344 293.6875 674.34375 292.683594 673.722656 291.691406 C 671.257812 287.738281 668.230469 283.871094 664.617188 280.421875 C 662.792969 278.722656 660.867188 277.078125 658.761719 275.648438 C 656.652344 274.230469 654.417969 272.964844 652.074219 271.917969 C 649.738281 270.851562 647.261719 270.089844 644.742188 269.535156 L 643.796875 269.328125 L 642.835938 269.179688 C 642.199219 269.078125 641.554688 268.960938 640.945312 268.925781 L 640.023438 268.835938 C 639.714844 268.808594 639.417969 268.765625 639.050781 268.765625 L 636.9375 268.703125 L 635.097656 268.761719 C 634.445312 268.777344 633.804688 268.871094 633.160156 268.917969 C 632.511719 268.957031 631.875 269.074219 631.238281 269.175781 L 630.28125 269.324219 L 629.335938 269.53125 C 626.816406 270.089844 624.339844 270.84375 622 271.910156 C 619.65625 272.964844 617.417969 274.222656 615.3125 275.644531 C 613.207031 277.074219 611.277344 278.714844 609.453125 280.414062 C 605.84375 283.867188 602.808594 287.734375 600.347656 291.691406 C 599.726562 292.675781 599.167969 293.683594 598.605469 294.667969 C 598.089844 295.679688 597.535156 296.65625 597.0625 297.65625 C 596.582031 298.648438 596.085938 299.617188 595.675781 300.605469 C 595.246094 301.582031 594.824219 302.546875 594.46875 303.511719 C 592.988281 307.355469 591.882812 311 591.058594 314.28125 C 590.28125 317.570312 589.714844 320.488281 589.347656 322.90625 C 589.003906 325.324219 588.734375 327.234375 588.625 328.554688 C 588.488281 329.871094 588.410156 330.574219 588.410156 330.574219 " fill-opacity="1" fill-rule="nonzero"/><path fill="rgb(56.858826%, 56.079102%, 56.079102%)" d="M 648.402344 389.003906 L 648.203125 385.460938 C 668.265625 384.339844 679.113281 375.179688 683.382812 355.757812 L 686.851562 356.519531 C 682.25 377.46875 670.03125 387.792969 648.402344 389.003906 " fill-opacity="1" fill-rule="nonzero"/><path fill="rgb(82.749939%, 82.348633%, 82.348633%)" d="M 657.945312 387.984375 C 658.097656 389.199219 657.332031 390.324219 656.246094 390.492188 C 655.152344 390.664062 654.140625 389.816406 653.988281 388.597656 L 653.523438 384.863281 C 653.371094 383.640625 654.132812 382.519531 655.222656 382.347656 C 656.316406 382.179688 657.328125 383.027344 657.480469 384.246094 L 657.945312 387.984375 " fill-opacity="1" fill-rule="nonzero"/><path fill="rgb(18.429565%, 23.919678%, 24.708557%)" d="M 655.210938 387.234375 C 655.375 390.191406 654.703125 392.332031 651.785156 392.503906 L 640.535156 393.132812 C 637.613281 393.292969 635.125 391.027344 634.964844 388.070312 C 634.800781 385.109375 637.035156 382.574219 639.953125 382.414062 L 651.203125 381.78125 C 654.117188 381.621094 655.046875 384.273438 655.210938 387.234375 " fill-opacity="1" fill-rule="nonzero"/><path fill="rgb(82.749939%, 82.348633%, 82.348633%)" d="M 692.980469 318.265625 L 692.980469 354.816406 C 697.402344 354.773438 700.976562 346.609375 700.976562 336.542969 C 700.976562 326.46875 697.402344 318.308594 692.980469 318.265625 " fill-opacity="1" fill-rule="nonzero"/><path fill="rgb(42.349243%, 78.819275%, 77.249146%)" d="M 692.980469 355.039062 C 692.980469 356.179688 692.003906 357.101562 690.796875 357.101562 C 689.589844 357.101562 688.613281 356.179688 688.613281 355.039062 L 688.613281 318.042969 C 688.613281 316.902344 689.589844 315.980469 690.796875 315.980469 C 692.003906 315.980469 692.980469 316.902344 692.980469 318.042969 L 692.980469 355.039062 " fill-opacity="1" fill-rule="nonzero"/><path fill="rgb(18.429565%, 23.919678%, 24.708557%)" d="M 690.796875 354.914062 C 690.796875 357.8125 688.476562 360.167969 685.625 360.167969 C 682.761719 360.167969 680.449219 357.8125 680.449219 354.914062 L 680.449219 318.167969 C 680.449219 315.269531 682.761719 312.914062 685.625 312.914062 C 688.476562 312.914062 690.796875 315.269531 690.796875 318.167969 L 690.796875 354.914062 " fill-opacity="1" fill-rule="nonzero"/><path fill="rgb(82.749939%, 82.348633%, 82.348633%)" d="M 581.097656 315.199219 L 581.097656 351.753906 C 576.675781 351.707031 573.097656 343.546875 573.097656 333.476562 C 573.097656 323.410156 576.675781 315.25 581.097656 315.199219 " fill-opacity="1" fill-rule="nonzero"/><path fill="rgb(42.349243%, 78.819275%, 77.249146%)" d="M 581.097656 351.972656 C 581.097656 353.117188 582.074219 354.039062 583.277344 354.039062 C 584.488281 354.039062 585.464844 353.117188 585.464844 351.972656 L 585.464844 314.984375 C 585.464844 313.84375 584.488281 312.914062 583.277344 312.914062 C 582.074219 312.914062 581.097656 313.84375 581.097656 314.984375 L 581.097656 351.972656 " fill-opacity="1" fill-rule="nonzero"/><path fill="rgb(18.429565%, 23.919678%, 24.708557%)" d="M 583.277344 351.851562 C 583.277344 354.753906 585.597656 357.101562 588.453125 357.101562 C 591.3125 357.101562 593.628906 354.753906 593.628906 351.851562 L 593.628906 315.105469 C 593.628906 312.203125 591.3125 309.855469 588.453125 309.855469 C 585.597656 309.855469 583.277344 312.203125 583.277344 315.105469 L 583.277344 351.851562 " fill-opacity="1" fill-rule="nonzero"/><path fill="rgb(56.858826%, 82.749939%, 92.939758%)" d="M 580.320312 442.535156 L 693.488281 442.535156 L 693.488281 467.269531 L 580.320312 467.269531 Z M 580.320312 442.535156 " fill-opacity="1" fill-rule="nonzero"/></svg>